# xmcd
#
# Track frame offsets: 
#        150
#        17838
#        39268
#        56440
#        81118
#        102648
#        117378
#        140355
#        160485
#        175190
#        197838
#
# Disc length: 2967 seconds
#
# Revision: 1
# Processed by: cddbd v1.5.2PL0 Copyright (c) Steve Scherf et al.
# Submitted via: ExactAudioCopy v1.0b3
#
DISCID=920b950b
DTITLE=Gangsta Boogie - Gangsta Boogie
DYEAR=1994
DGENRE=West Coast G-Funk
TTITLE0=Deon Knighton/Gangsta Boogie/Joe Groover Grove - Gotta Keep Ba
TTITLE0=il N
TTITLE1=Deon Knighton/Gangsta Boogie/Joe Groover Grove/Little Dee/Mr. 
TTITLE1=X - Ain't No Luv
TTITLE2=Shake It Momma
TTITLE3=Gangsta Boogie/Joe Groover Grove/Theodore Miller/Willie Zimmer
TTITLE3=man - But I'm Still Here
TTITLE4=Gangsta Boogie/Joe Groover Grove/Simply Raw/Willie Zimmerman /
TTITLE4=No Sunshine When It's On
TTITLE5=Gangsta Boogie/Joe Groover Grove/Mr. X/Theodore Miller - Pass 
TTITLE5=Tha Joint
TTITLE6=Gangsta Boogie/Joe Groover Grove/Lloyd Avery - Criminal Jazz
TTITLE7=Ding Dong
TTITLE8=Gangsta Boogie/Little Dee - Put That On Somethang
TTITLE9=Block Party
TTITLE10=Ding Dong (Remix)
EXTD=Cashflow420.com
EXTT0=
EXTT1=
EXTT2=
EXTT3=
EXTT4=
EXTT5=
EXTT6=
EXTT7=
EXTT8=
EXTT9=
EXTT10=
PLAYORDER=
